<?xml version="1.0" standalone="no"?>
<svg xmlns:xlink="http://www.w3.org/1999/xlink" id="wave" style="transform:rotate(0deg); transition: 0.3s" viewBox="0 0 1440 100" version="1.1" xmlns="http://www.w3.org/2000/svg"><defs><linearGradient id="sw-gradient-0" x1="0" x2="0" y1="1" y2="0"><stop stop-color="rgba(255, 255, 255, 1)" offset="0%"/><stop stop-color="rgba(255, 255, 255, 1)" offset="100%"/></linearGradient></defs><path style="transform:translate(0, 0px); opacity:1" fill="url(#sw-gradient-0)" d="M0,0L21.8,11.7C43.6,23,87,47,131,48.3C174.5,50,218,30,262,20C305.5,10,349,10,393,20C436.4,30,480,50,524,60C567.3,70,611,70,655,60C698.2,50,742,30,785,30C829.1,30,873,50,916,60C960,70,1004,70,1047,66.7C1090.9,63,1135,57,1178,45C1221.8,33,1265,17,1309,15C1352.7,13,1396,27,1440,36.7C1483.6,47,1527,53,1571,61.7C1614.5,70,1658,80,1702,83.3C1745.5,87,1789,83,1833,75C1876.4,67,1920,53,1964,53.3C2007.3,53,2051,67,2095,71.7C2138.2,77,2182,73,2225,73.3C2269.1,73,2313,77,2356,65C2400,53,2444,27,2487,23.3C2530.9,20,2575,40,2618,43.3C2661.8,47,2705,33,2749,23.3C2792.7,13,2836,7,2880,8.3C2923.6,10,2967,20,3011,25C3054.5,30,3098,30,3120,30L3141.8,30L3141.8,100L3120,100C3098.2,100,3055,100,3011,100C2967.3,100,2924,100,2880,100C2836.4,100,2793,100,2749,100C2705.5,100,2662,100,2618,100C2574.5,100,2531,100,2487,100C2443.6,100,2400,100,2356,100C2312.7,100,2269,100,2225,100C2181.8,100,2138,100,2095,100C2050.9,100,2007,100,1964,100C1920,100,1876,100,1833,100C1789.1,100,1745,100,1702,100C1658.2,100,1615,100,1571,100C1527.3,100,1484,100,1440,100C1396.4,100,1353,100,1309,100C1265.5,100,1222,100,1178,100C1134.5,100,1091,100,1047,100C1003.6,100,960,100,916,100C872.7,100,829,100,785,100C741.8,100,698,100,655,100C610.9,100,567,100,524,100C480,100,436,100,393,100C349.1,100,305,100,262,100C218.2,100,175,100,131,100C87.3,100,44,100,22,100L0,100Z"/></svg>