<?xml version="1.0" encoding="utf-8"?>
<!-- Generator: Adobe Illustrator 24.0.0, SVG Export Plug-In . SVG Version: 6.00 Build 0)  -->
<svg version="1.1" id="Layer_1" xmlns="http://www.w3.org/2000/svg" xmlns:xlink="http://www.w3.org/1999/xlink" x="0px" y="0px"
	 viewBox="0 0 1366 335" style="enable-background:new 0 0 1366 335;" xml:space="preserve">
<style type="text/css">
	.st0{fill:#C69531;}
</style>
<g>
	<path class="st0" d="M139.24,217.85c0,5.35-2.15,10.27-6.45,14.75c-4.3,4.48-10.27,7.85-17.91,10.11
		c-3.88,1.11-9.85,2.43-17.91,3.97c-8.07,1.54-16.19,2.32-24.36,2.37c-17.52,0-26.27-5.53-26.27-16.58c0-2.68,1.63-6.66,4.9-11.94
		c3.26-5.29,5.93-7.93,8-7.93c0.96,0.13,1.43,0.59,1.43,1.38s-1.05,2.82-3.14,6.09c-2.1,3.27-3.15,5.65-3.15,7.14
		c0,1.49,1.72,3.21,5.18,5.17c3.45,1.95,9.05,2.93,16.8,2.93c7.75,0,16.83-0.88,27.23-2.63c10.4-1.75,19.13-3.82,26.19-6.19
		l-5.97-11.05l8.52-12.17C136.93,207.63,139.24,212.5,139.24,217.85z M109.3,189.56l-4.06,11.91l-23.41,6.65l4.06-11.84
		L109.3,189.56z"/>
	<path class="st0" d="M169.42,234.24l-11.78,11.58v-62.45l11.78-12.63V234.24z"/>
	<path class="st0" d="M236.86,224.89c0,6.84-2.31,13.03-6.93,18.56c-4.62,5.53-10.35,9.1-17.2,10.73
		c-6.85,1.62-15.87,2.43-27.07,2.43c-3.72,0-6.66-0.04-8.84-0.13c-2.18-0.09-3.26-0.57-3.26-1.45c0-0.48,0.82-1.21,2.47-2.17
		c1.17-0.48,7.22-2.74,18.15-6.78c10.93-4.04,18.42-7.04,22.45-9.01c8.76-4.12,14.28-8.05,16.56-11.78
		c0.69-1.18,1.59-2.04,2.71-2.57C236.54,222.72,236.86,223.45,236.86,224.89z"/>
	<path class="st0" d="M273.8,245.82h-20.14v-62.45l9.63-12.5v64.16h10.51V245.82z"/>
	<path class="st0" d="M295.54,259.31l-4.06,11.91l-23.41,6.65l4.06-11.84L295.54,259.31z M279.77,245.82h-9.32l-0.16-1.65l0.16-9.15
		h11.31c2.55,0,5.47-1.6,8.76-4.8c3.29-3.2,4.99-4.8,5.1-4.8c0.64,0,0.96,0.5,0.96,1.51c0,1.01-0.45,2.41-1.35,4.21
		c-0.9,1.8-1.35,2.9-1.35,3.29c0,0.4,0.32,0.59,0.96,0.59h15.53v10.79h-22.29c1.27-2.72,1.91-4.25,1.91-4.61
		c0-0.31-0.27-0.46-0.8-0.46C285.08,244.13,281.95,245.82,279.77,245.82z"/>
	<path class="st0" d="M307,245.82v-10.92h12.26c3.71,0,6.78-1.18,9.2-3.55c2.41-2.37,3.83-3.55,4.26-3.55
		c0.85,0,1.27,0.37,1.27,1.11c0.05,0.74-0.4,1.97-1.35,3.69c-0.96,1.64-1.43,2.59-1.43,2.83c4.03-0.13,7.15-0.71,9.36-1.74
		c2.2-1.03,4.26-2.73,6.17-5.1c1.96-2.37,3.42-3.55,4.38-3.55c0.96,0,1.43,0.48,1.43,1.45c0,0.97-1.62,3.68-4.86,8.16
		c4.09,0,6.69-0.46,7.8-1.38c1.17-0.7,2.6-2.09,4.3-4.18c1.7-2.08,3-3.13,3.9-3.13c0.9,0,1.35,0.44,1.35,1.32
		c0,0.88-0.69,2.26-2.07,4.15c-1.38,1.89-2.2,3.05-2.47,3.49h16.8v10.92c-0.8-0.09-3.5-0.13-8.12-0.13h-13.69
		c-0.58-0.12-0.88-0.39-0.88-0.83l1.35-3.5c0-0.28-0.16-0.43-0.48-0.43c-4.19,3.26-8.17,4.89-11.94,4.89
		c-1.11,0-1.83-0.16-2.15-0.49c0-0.19,0.24-0.55,0.72-1.05c0.27-0.62,0.4-1.05,0.4-1.29c0-0.23-0.08-0.41-0.24-0.53
		c-2.87,2.5-7.62,3.75-14.25,3.75c-2.81,0-4.22-0.21-4.22-0.64c0.05-0.04,0.13-0.18,0.24-0.42l0.8-2.85
		c-0.05-0.16-0.19-0.24-0.4-0.24c-2.71,1.55-5.23,2.56-7.56,3.04C314.54,245.58,311.25,245.82,307,245.82z"/>
	<path class="st0" d="M415.37,245.82h-19.51v-6.25c-2.33,2.19-4.48,3.78-6.44,4.77c-1.96,0.99-7.17,1.48-15.61,1.48l0.08-1.58
		l-0.08-9.21h13.46c3.24,0,5.37-0.43,6.41-1.28s1.55-2.6,1.55-5.23v-42.05l10.03-13.62v62.18h10.11V245.82z"/>
	<path class="st0" d="M412.1,235.03h11.43c4.96,0,7.44-1.16,7.44-3.49v-48.82l9.63-11.65v56.98c0,4.39-1.84,8.44-5.53,12.17
		c-3.69,3.73-10.71,5.59-21.06,5.59h-1.91V235.03z"/>
	<path class="st0" d="M533.88,218.08c2.47,1.69,3.7,3.84,3.7,6.45c0,2.61-2.39,6.11-7.17,10.5h21.02v10.79h-22.93
		c-2.39,0-4.65-0.94-6.77-2.83c-19.48,11.49-29.22,22.35-29.22,32.57c0,12.46,14.81,18.69,44.43,18.69c3.93,0,9.78-0.43,17.56-1.28
		c7.78-0.86,13.42-1.28,16.92-1.28c3.5,0,5.26,0.33,5.26,0.99c-2.87,6.19-13.22,10.7-31.05,13.55c-7.33,1.18-14.57,1.78-21.74,1.78
		c-25.96,0-38.93-8.05-38.93-24.15c0-7.72,2.97-16.19,8.92-25.4c5.94-9.21,12.71-16.27,20.3-21.19c-0.96-0.79-1.65-1.4-2.07-1.84
		c-2.07-1.32-3.11-2.92-3.11-4.8c0-3.55,1.43-6.95,4.3-10.2c2.87-3.25,6.4-4.87,10.59-4.87
		C528.08,215.55,531.41,216.39,533.88,218.08z"/>
	<path class="st0" d="M573.89,259.9l-4.06,11.91l-23.41,6.65l4.06-11.84L573.89,259.9z M547.93,235.03h6.21
		c5.68,0,10.35-1.12,14.01-3.36l-5.65-8.62l8.2-11.25c3.56,3.42,5.33,8.09,5.33,14.02v2.96c-3.24,11.36-10.59,17.04-22.05,17.04
		h-6.05V235.03z"/>
	<path class="st0" d="M650.65,245.82h-9.71c-3.56,0-6.13,0.88-7.72,2.63c-1.59,1.75-3.33,4.43-5.22,8.03
		c-1.88,3.6-4.09,6.42-6.61,8.46c-2.52,2.04-6.41,3.06-11.66,3.06c-5.25,0.04-12.34-0.33-21.26-1.12
		c-8.92-0.79-13.38-1.78-13.38-2.96c0-1.18,4.91-2.83,14.73-4.94c9.82-2.15,19.61-4.8,29.38-7.96c2.55-0.83,4.39-1.82,5.53-2.96
		c1.14-1.14,2.37-2.76,3.7-4.87c1.33-2.11,2.87-4.17,4.62-6.19c1.22-1.32,2.63-1.97,4.22-1.97h13.38V245.82z"/>
	<path class="st0" d="M646.98,245.82v-10.92h12.26c3.72,0,6.78-1.18,9.2-3.55c2.41-2.37,3.83-3.55,4.26-3.55
		c0.85,0,1.27,0.37,1.27,1.11c0.05,0.74-0.4,1.97-1.35,3.69c-0.96,1.64-1.43,2.59-1.43,2.83c4.03-0.13,7.15-0.71,9.36-1.74
		c2.2-1.03,4.26-2.73,6.17-5.1c1.96-2.37,3.42-3.55,4.38-3.55c0.96,0,1.43,0.48,1.43,1.45c0,0.97-1.62,3.68-4.86,8.16
		c4.09,0,6.69-0.46,7.8-1.38c1.17-0.7,2.6-2.09,4.3-4.18c1.7-2.08,3-3.13,3.9-3.13c0.9,0,1.35,0.44,1.35,1.32
		c0,0.88-0.69,2.26-2.07,4.15c-1.38,1.89-2.2,3.05-2.47,3.49h16.8v10.92c-0.8-0.09-3.5-0.13-8.12-0.13h-13.69
		c-0.58-0.12-0.88-0.39-0.88-0.83l1.35-3.5c0-0.28-0.16-0.43-0.48-0.43c-4.19,3.26-8.17,4.89-11.94,4.89
		c-1.11,0-1.83-0.16-2.15-0.49c0-0.19,0.24-0.55,0.72-1.05c0.26-0.62,0.4-1.05,0.4-1.29c0-0.23-0.08-0.41-0.24-0.53
		c-2.87,2.5-7.62,3.75-14.25,3.75c-2.81,0-4.22-0.21-4.22-0.64c0.05-0.04,0.13-0.18,0.24-0.42l0.8-2.85
		c-0.05-0.16-0.19-0.24-0.4-0.24c-2.71,1.55-5.23,2.56-7.56,3.04C654.52,245.58,651.23,245.82,646.98,245.82z"/>
	<path class="st0" d="M714.1,235.03h11.43c4.96,0,7.44-1.16,7.44-3.49v-48.82l9.63-11.65v56.98c0,4.39-1.84,8.44-5.53,12.17
		c-3.69,3.73-10.71,5.59-21.06,5.59h-1.91V235.03z"/>
	<path class="st0" d="M772.86,234.24l-11.78,11.58v-62.45l11.78-12.63V234.24z"/>
	<path class="st0" d="M891.66,245.95h-5.81c-2.18,8.9-7.33,16.13-15.46,21.68c-8.13,5.55-17.7,8.32-28.7,8.32
		c-7.4,0-13.34-1.81-17.82-5.43c-4.49-3.62-6.73-8.52-6.73-14.71c0-3.62,1.39-8.16,4.17-13.61c2.78-5.45,4.68-8.18,5.71-8.18
		c1.17,0,1.75,0.33,1.75,0.99c0,0.66-1.02,2.59-3.07,5.81c-2.05,3.21-3.07,5.65-3.07,7.3c0,3.95,2.05,7.44,6.14,10.46
		c4.09,3.03,8.96,4.54,14.59,4.54c5.58,0,12.47-0.98,20.65-2.95c8.19-1.97,12.28-4.39,12.28-7.27v-70.32l9.32-9.61v62.18h11.78
		l-0.16,10.66C896.11,245.91,894.26,245.95,891.66,245.95z"/>
	<path class="st0" d="M968.16,245.82h-35.65c-0.53-0.09-0.79-0.28-0.79-0.56s2.51-2.31,7.54-6.08c-0.54,0.09-2.28,0.35-5.24,0.79
		l-5.08,0.76c-2.06,0.31-5.63,0.85-10.71,1.6c-1.05,0.58-1.94,2.26-2.67,5.04c-0.58,1.5-1.08,2.57-1.5,3.21
		c-0.42,0.64-1.08,0.96-1.97,0.96c-0.89,0-1.34-0.6-1.34-1.81c0-1.21,0.56-3.12,1.67-5.74l-14.41,1.82h-3.82v-10.79h6.45
		c5.52,0,10.24-0.55,14.16-1.65c4.81-14.39,11.51-21.58,20.08-21.58c3.92,0,7.74,1.96,11.45,5.89c0.05,0.08,4.38,3.82,12.98,11.22
		c0,0.23-1.78,1.78-5.33,4.64c-3.56,2.86-5.33,4.46-5.33,4.78c0.11,0.21,0.53,0.31,1.27,0.31c0.74,0,3.4-0.6,7.96-1.81
		c4.56-1.21,7.99-1.81,10.27-1.81V245.82z M930.83,222.59c-2.23,0-4.3,1.05-6.21,3.16c-1.91,2.11-3.13,4.26-3.66,6.45l20.07-2.6
		c-0.53-1.37-1.73-2.89-3.58-4.56C935.27,223.4,933.06,222.59,930.83,222.59z"/>
	<path class="st0" d="M964.27,235.03h11.43c4.96,0,7.44-1.16,7.44-3.49v-48.82l9.63-11.65v56.98c0,4.39-1.84,8.44-5.53,12.17
		c-3.69,3.73-10.71,5.59-21.06,5.59h-1.91V235.03z"/>
	<path class="st0" d="M1023.03,234.24l-11.78,11.58v-62.45l11.78-12.63V234.24z"/>
	<path class="st0" d="M1105.19,235.03c-0.33-0.14-0.38-1.82-0.17-5.03c0.22-3.22,0.33-6.28,0.33-9.18c0-2.91-0.55-6.01-1.64-9.33
		c-0.38-2.47-2.63-3.7-6.74-3.7c-2.07,0-4.71,0.68-7.9,2.03c-6.12,2.58-11.99,6.72-17.63,12.41c-2.77,3.4-4.15,6.36-4.15,8.88
		c0,2.52,1.06,4.5,3.19,5.93c2.12,1.43,4.7,2.14,7.72,2.14c3.03,0,6.21-0.69,9.55-2.06c3.34-1.38,5.86-3.26,7.56-5.65v14.36h20.06
		v-10.79H1105.19z M1093.26,225.08c-1.17,0.84-4.35,1.26-9.55,1.26c-5.2,0-7.78-0.88-7.72-2.65c0-1.44,1.83-2.65,5.49-3.64
		c3.71-0.99,6.9-1.48,9.55-1.48c2.65,0,3.98,0.97,3.98,2.9C1095.01,223.03,1094.42,224.24,1093.26,225.08z"/>
	<path class="st0" d="M1112.05,235.16h12.82c6.05,0,9.32-0.94,9.79-2.83v-35.34l9.55-14.94l38.22-21.85l-7.56,15.86l-30.18,17.17
		v34.15c-0.43,2.46-1.69,5.16-3.78,8.09c-2.1,2.94-4.84,5.42-8.24,7.44c-3.4,2.02-7.03,3.03-10.91,3.03h-9.71V235.16z"/>
	<path class="st0" d="M1248.28,245.82h-9.71c-3.56,0-6.13,0.88-7.72,2.63c-1.59,1.75-3.33,4.43-5.22,8.03
		c-1.88,3.6-4.09,6.42-6.61,8.46c-2.52,2.04-6.41,3.06-11.66,3.06c-5.26,0.04-12.34-0.33-21.26-1.12
		c-8.92-0.79-13.38-1.78-13.38-2.96c0-1.18,4.91-2.83,14.73-4.94c9.82-2.15,19.61-4.8,29.38-7.96c2.55-0.83,4.39-1.82,5.53-2.96
		c1.14-1.14,2.38-2.76,3.7-4.87c1.33-2.11,2.87-4.17,4.62-6.19c1.22-1.32,2.63-1.97,4.22-1.97h13.38V245.82z"/>
	<path class="st0" d="M1265.24,245.82h-3.82l1.12-3.88c-6.05,2.59-10.83,3.88-14.33,3.88h-3.11v-10.79h4.06
		c7.7,0,13.19-2.13,16.48-6.38c1.27-1.62,2.12-2.43,2.55-2.43c1.17,0,1.75,0.46,1.75,1.38c0,0.92-0.24,2.13-0.72,3.62
		c-0.48,1.49-0.72,2.5-0.72,3.03c5.89-0.13,10.08-0.92,12.58-2.37c2.49-1.45,4.25-3.02,5.25-4.7c1.01-1.69,1.8-2.53,2.39-2.53
		c0.96,0,1.43,0.44,1.43,1.32c0,0.88-0.6,2.42-1.79,4.64c-1.19,2.22-1.79,3.43-1.79,3.65c6.69-0.48,11.23-2.81,13.62-6.98
		c1.01-1.84,2.07-2.76,3.18-2.76c0.96,0.26,1.43,0.75,1.43,1.45c0,5.97-2.23,10.77-6.69,14.41c-4.46,3.64-10.3,5.46-17.52,5.46
		l0.8-4.01C1274.92,244.48,1269.53,245.82,1265.24,245.82z M1296.61,190.54l-3.98,11.84l-23.41,6.65l3.98-11.84L1296.61,190.54z
		 M1282.12,192.39l-8.84-5.72l9.71-10l8.68,6.19L1282.12,192.39z"/>
	<polygon class="st0" points="1093.99,194.18 1073.23,200.67 1069.29,211.33 1089.8,204.93 	"/>
</g>
<path class="st0" d="M697.45,99.15l-153.08,1.35c0,0-43.76-25.27-73.65,26.72c0,0,20.36-23.4,50.69-21.23
	c0,0,31.77-0.87,48.38,21.23c0,0-0.51-11.7-13.07-19.93L697.45,99.15z"/>
<path class="st0" d="M816.45,55.74c0,0,6.35,17.33-44.48,23.68l-254.75,5.91c0,0-52.57-1.28-84.92,25.87h24.26
	c0,0-8.09,15.02-27.15,14.44l2.31,23.68c0,0-7.51-0.58-8.09-21.95v-20.8c0,0,23.11-20.22,57.19-24.26c0,0,8.67-8.67,133.44-8.67
	l4.62-6.21c0,0-7.8-4.12-2.82-7.58c0,0,8.02-12.78,27.73-10.61c0,0,3.68-0.43,3.47,6.5l-0.65,6.72c0,0,0.65,3.9-5.42,4.12L623.43,67
	l1.3,1.95l-1.08,3.47l159.65-4.77C783.3,67.65,810.38,65.92,816.45,55.74z"/>
<path class="st0" d="M774.28,102.53c0,0,57.77-33.5,105.71-30.04l46.21-0.25c0,0,7.51-1.16,10.4,15.15l8.09,38.25l-6.35,23.68
	l17.33-34.66l-10.4-47.95l5.2-12.71c0,0-51.99-1.73-71.05-7.51c0,0-134.6-32.35-196.41-23.68c0,0-32.93,2.31-113.22,46.21
	l30.04-1.16l-4.04-2.89c0,0,56.03-34.66,88.96-32.35c0,0,70.16-8.22,168.68,28.31C853.42,60.94,821.07,68.45,774.28,102.53z"/>
<path class="st0" d="M813.85,120.44c0,0,22.82-23.21,51.41-21.28c0,0,33.22-0.09,48.52,23.88c0,0-7.51-35.24-49.97-34.37
	C863.81,88.66,832.33,88.09,813.85,120.44z"/>
</svg>
