<svg id="Capa_1" enable-background="new 0 0 512 512" height="512" viewBox="0 0 512 512" width="512" xmlns="http://www.w3.org/2000/svg"><g><path d="m487.934 430.733h-71.775c1.838-2.274 3.459-4.765 4.807-7.461l1.415-2.83c2.465-4.929 2.206-10.67-.69-15.357-2.897-4.687-7.916-7.485-13.427-7.485h-14.009c1.143-2.8 1.779-5.86 1.779-9.066 0-13.271-10.796-24.066-24.066-24.066s-24.068 10.795-24.068 24.065c0 3.207.635 6.266 1.779 9.066h-19.912v-9.066c0-22.405-18.228-40.633-40.633-40.633h-52.885c-12.701-10.348-28.894-16.567-46.516-16.567-38.143 0-69.618 29.101-73.387 66.267h-12.61c-5.511 0-10.529 2.799-13.427 7.485-2.896 4.688-3.155 10.429-.69 15.357l1.415 2.83c1.348 2.696 2.968 5.187 4.806 7.461h-71.774c-13.27 0-24.066 10.796-24.066 24.067 0 13.27 10.796 24.066 24.066 24.066h11.932l5.335 10.673c6.928 13.855 20.855 22.461 36.345 22.461h23.289c4.143 0 7.5-3.357 7.5-7.5s-3.357-7.5-7.5-7.5h-23.289c-9.772 0-18.558-5.43-22.928-14.169l-1.982-3.965h406.464l-1.982 3.964c-4.37 8.74-13.155 14.17-22.928 14.17h-303.355c-4.143 0-7.5 3.357-7.5 7.5s3.357 7.5 7.5 7.5h303.355c15.49 0 29.417-8.606 36.344-22.462l5.335-10.672h11.932c13.271 0 24.066-10.796 24.066-24.066.001-13.271-10.795-24.067-24.065-24.067zm-125.034-42.2c0-4.999 4.067-9.066 9.066-9.066s9.066 4.067 9.066 9.066-4.067 9.066-9.066 9.066c-4.998.001-9.066-4.067-9.066-9.066zm-48.133 0v9.066h-18.133v-9.066c0-9.712-3.429-18.635-9.134-25.633h1.634c14.133 0 25.633 11.499 25.633 25.633zm-51.646 9.067c-1.3-12.817-5.91-24.663-12.937-34.699h5.816c14.135 0 25.634 11.499 25.634 25.633v9.066zm-73.388-51.267c29.862 0 54.575 22.394 58.271 51.267h-18.344c-3.53-18.833-20.085-33.133-39.927-33.133s-36.398 14.3-39.928 33.133h-18.343c3.697-28.873 28.409-51.267 58.271-51.267zm24.511 51.267h-49.023c3.215-10.486 12.986-18.133 24.512-18.133 11.525 0 21.296 7.647 24.511 18.133zm-109.794 18.964-1.415-2.83c-.054-.106-.195-.391.034-.762.229-.372.548-.372.667-.372h304.527c.119 0 .438 0 .667.372.229.371.088.655.034.762l-1.415 2.83c-4.37 8.74-13.155 14.17-22.928 14.17h-257.243c-9.773-.001-18.558-5.43-22.928-14.17zm383.484 47.302h-463.868c-4.999 0-9.066-4.067-9.066-9.066s4.067-9.066 9.066-9.066h463.867c4.999 0 9.066 4.067 9.066 9.066.001 4.999-4.066 9.066-9.065 9.066z"/><path d="m24.066 313.2h35.748c4.143 0 7.5-3.357 7.5-7.5s-3.357-7.5-7.5-7.5h-35.748c-4.999 0-9.066-4.067-9.066-9.067 0-4.999 4.067-9.066 9.066-9.066h463.867c4.999 0 9.066 4.067 9.066 9.066 0 5-4.067 9.067-9.066 9.067h-398.119c-4.143 0-7.5 3.357-7.5 7.5s3.357 7.5 7.5 7.5h398.119c13.271 0 24.066-10.797 24.066-24.067 0-10.684-6.999-19.759-16.652-22.892-1.587-61.586-26.314-119.25-70.043-162.979-36.273-36.274-82.139-59.46-131.874-67.223 2.033-3.529 3.203-7.616 3.203-11.973.001-13.27-10.796-24.066-24.067-24.066h-33.133c-13.27 0-24.067 10.796-24.067 24.066 0 4.357 1.17 8.444 3.203 11.973-49.735 7.763-95.601 30.949-131.875 67.223-43.728 43.728-68.456 101.393-70.042 162.978-9.653 3.134-16.652 12.209-16.652 22.893 0 13.27 10.796 24.067 24.066 24.067zm8.973-66.266h445.922c.683 5.977 1.132 12.024 1.334 18.133h-448.59c.202-6.11.651-12.156 1.334-18.133zm206.395-213.801c-5 0-9.067-4.067-9.067-9.066s4.067-9.067 9.067-9.067h33.133c5 0 9.067 4.067 9.067 9.066s-4.067 9.066-9.067 9.066h-33.133zm16.566 15c109.881 0 201.563 79.378 220.738 183.801h-441.476c19.175-104.423 110.857-183.801 220.738-183.801z"/></g></svg>