<?xml version="1.0"?>
<svg xmlns="http://www.w3.org/2000/svg" viewBox="0 0 512 512" width="512" height="512"><g id="Outline"><path d="M88,456V264a185.81,185.81,0,0,1,15.113-73.618l16.477-38.453c1.407-3.272,2.739-6.637,3.991-10.045a151.42,151.42,0,0,1,59.384,1.2,166.153,166.153,0,0,0,36.1,3.985,166.045,166.045,0,0,0,26.5-2.136c.9,2.341,1.849,4.678,2.84,6.993l16.481,38.461,14.707-6.3-16.48-38.458c-1.753-4.1-3.366-8.264-4.8-12.392A186.553,186.553,0,0,1,248.172,80H256a8,8,0,0,0,8-8V40a24.028,24.028,0,0,0-24-24H128a24.028,24.028,0,0,0-24,24V72a8,8,0,0,0,8,8h7.827a186.56,186.56,0,0,1-9.817,52.3c-1.547,4.525-3.269,9-5.123,13.315l-16.48,38.46A201.739,201.739,0,0,0,72,264V456a40.045,40.045,0,0,0,40,40H240V480H112A24.028,24.028,0,0,1,88,456ZM120,40a8.009,8.009,0,0,1,8-8H240a8.009,8.009,0,0,1,8,8V64H120ZM232.157,80a202.266,202.266,0,0,0,8.182,49.53,149.57,149.57,0,0,1-53.9-2.07,167.409,167.409,0,0,0-57.45-2.585A202.424,202.424,0,0,0,135.844,80Z"/><rect x="125.319" y="165.931" width="21.908" height="16.001" transform="translate(-77.275 230.674) rotate(-66.802)"/><path d="M104,264v32h16V264a154,154,0,0,1,12.523-61.009l-14.7-6.3A169.9,169.9,0,0,0,104,264Z"/><path d="M440,240c0-26.261-52.318-40-104-40s-104,13.739-104,40a19.2,19.2,0,0,0,.224,2.882L256.04,488.8A8,8,0,0,0,264,496H408a8,8,0,0,0,7.96-7.2l23.816-245.916A19.2,19.2,0,0,0,440,240Zm-21.807,65.5-4.043,1.349a126.822,126.822,0,0,1-76.931,1.167,143.272,143.272,0,0,0-82.439,0l-.725.217-3.943-44.669C269.857,274.416,303.056,280,336,280s66.146-5.585,85.891-16.436ZM336,216c56.579,0,87.59,15.651,87.981,23.841l-.09,1C421.9,249.185,391.043,264,336,264s-85.9-14.815-87.891-23.16l-.09-1C248.41,231.651,279.421,216,336,216Zm64.762,264H271.234L255.571,324.485l3.808-1.142a127.828,127.828,0,0,1,73.242,0,142.685,142.685,0,0,0,83.889-.443Z"/><rect x="273.968" y="342.991" width="15.999" height="17.041" transform="translate(-29.804 26.144) rotate(-5.042)"/><rect x="279.303" y="375.843" width="16" height="64.314" transform="translate(-38.883 30.363) rotate(-5.667)"/></g></svg>
